<?xml version="1.0" encoding="utf-8"?>
<!-- Generator: Adobe Illustrator 16.0.0, SVG Export Plug-In . SVG Version: 6.00 Build 0)  -->
<!DOCTYPE svg PUBLIC "-//W3C//DTD SVG 1.1//EN" "http://www.w3.org/Graphics/SVG/1.1/DTD/svg11.dtd">
<svg version="1.1" id="Layer_1" xmlns="http://www.w3.org/2000/svg" xmlns:xlink="http://www.w3.org/1999/xlink" x="0px" y="0px"
	 width="1400px" height="280px" viewBox="0 0 1400 280" enable-background="new 0 0 1400 280" xml:space="preserve">
<linearGradient id="sky_x2F_space_2_" gradientUnits="userSpaceOnUse" x1="-357.1406" y1="416.1621" x2="-364.2827" y2="84.3772" gradientTransform="matrix(1 0 0 1 1062 -65.5)">
	<stop  offset="0" style="stop-color:#F3C187"/>
	<stop  offset="0.0527" style="stop-color:#F4AB8D"/>
	<stop  offset="0.1315" style="stop-color:#D37A66"/>
	<stop  offset="0.3231" style="stop-color:#4F5864"/>
	<stop  offset="0.5913" style="stop-color:#0E3C4C"/>
	<stop  offset="1" style="stop-color:#0F1C22"/>
</linearGradient>
<rect id="sky_x2F_space_1_" x="1" y="1.246" fill="url(#sky_x2F_space_2_)" width="1399" height="293.754"/>
<g id="stars_1_">
	<polygon fill="#595D7B" points="305.398,20.715 304.088,19.243 305.398,17.772 306.709,19.244 	"/>
	<polygon fill="#595D7B" points="409.045,103.55 407.195,101.472 409.046,99.396 410.896,101.473 	"/>
	<polygon fill="#595D7B" points="530.196,50.29 528.345,48.211 530.196,46.134 532.046,48.211 	"/>
	<polygon fill="#595D7B" points="335.697,84.457 333.846,82.379 335.697,80.301 337.547,82.378 	"/>
	<polygon fill="#595D7B" points="608.586,14.724 607.045,12.993 608.587,11.262 610.129,12.993 	"/>
	<polygon fill="#595D7B" points="752.422,66.963 751.344,65.751 752.423,64.54 753.502,65.751 	"/>
	<polygon display="none" fill="#595D7B" points="690.107,36.121 688.256,34.043 690.107,31.965 691.958,34.044 	"/>
	<polygon fill="#595D7B" points="754.333,101.66 752.481,99.582 754.333,97.503 756.185,99.582 	"/>
	<polygon fill="#595D7B" points="305.328,101.251 303.477,99.174 305.328,97.096 307.178,99.175 	"/>
	<polygon fill="#595D7B" points="311.646,133.644 309.795,131.565 311.646,129.488 313.498,131.565 	"/>
	<polygon fill="#595D7B" points="748.457,157.994 746.607,155.916 748.457,153.839 750.308,155.916 	"/>
	<polygon fill="#595D7B" points="691.992,117.379 690.141,115.302 691.992,113.224 693.843,115.301 	"/>
	<polygon fill="#595D7B" points="787.881,52.41 786.029,50.332 787.881,48.254 789.731,50.332 	"/>
	<polygon display="none" fill="#595D7B" points="519.232,121.613 517.381,119.535 519.232,117.457 521.082,119.535 	"/>
	<polygon fill="#595D7B" points="569.689,29.828 567.839,27.75 569.69,25.673 571.54,27.751 	"/>
	<polygon fill="#595D7B" points="712.848,88.791 710.997,86.712 712.848,84.635 714.698,86.713 	"/>
	<polygon fill="#595D7B" points="628.842,53.576 626.992,51.498 628.842,49.42 630.692,51.498 	"/>
	<polygon fill="#595D7B" points="499.511,149.488 497.66,147.411 499.511,145.333 501.361,147.411 	"/>
	<polygon fill="#595D7B" points="680.729,96.817 678.877,94.74 680.729,92.662 682.579,94.74 	"/>
	<polygon fill="#595D7B" points="545.285,13.051 543.435,10.974 545.285,8.896 547.136,10.973 	"/>
	<polygon fill="#595D7B" points="470.447,59.438 468.598,57.36 470.448,55.282 472.298,57.36 	"/>
	<polygon fill="#595D7B" points="350.793,53.319 348.943,51.242 350.793,49.164 352.644,51.241 	"/>
	<polygon display="none" fill="#595D7B" points="611.426,31.064 609.576,28.987 611.425,26.909 613.277,28.986 	"/>
	<polygon fill="#595D7B" points="851.702,80.365 849.852,78.287 851.702,76.209 853.553,78.287 	"/>
	<polygon fill="#595D7B" points="645.297,131.567 643.446,129.489 645.296,127.412 647.147,129.489 	"/>
	<polygon fill="#595D7B" points="674.454,26.483 672.604,24.405 674.454,22.328 676.304,24.406 	"/>
	<polygon display="none" fill="#595D7B" points="609.165,115.883 607.314,113.805 609.165,111.728 611.015,113.806 	"/>
	<polygon display="none" fill="#595D7B" points="582.919,60.027 581.068,57.949 582.919,55.871 584.77,57.95 	"/>
	<polygon fill="#595D7B" points="728.99,35.234 727.911,34.022 728.99,32.81 730.068,34.022 	"/>
	<polygon fill="#595D7B" points="385.4,131.482 383.55,129.404 385.4,127.326 387.251,129.404 	"/>
	<polygon fill="#595D7B" points="448.528,99.195 446.678,97.117 448.527,95.039 450.379,97.117 	"/>
	<polygon fill="#595D7B" points="412.483,83.608 410.632,81.53 412.484,79.452 414.334,81.529 	"/>
	<polygon fill="#595D7B" points="612.736,123.883 610.885,121.805 612.735,119.728 614.586,121.805 	"/>
	<polygon fill="#595D7B" points="336.663,151.57 334.813,149.492 336.663,147.415 338.513,149.493 	"/>
	<polygon fill="#595D7B" points="643.397,45.515 641.546,43.437 643.396,41.358 645.247,43.437 	"/>
	<polygon fill="#595D7B" points="244.057,152.649 242.206,150.571 244.057,148.494 245.908,150.572 	"/>
	<polygon fill="#595D7B" points="619.845,42.701 618.65,41.36 619.845,40.018 621.041,41.359 	"/>
	<polygon fill="#595D7B" points="518.875,107.055 517.679,105.714 518.875,104.373 520.07,105.714 	"/>
	<polygon fill="#595D7B" points="507.021,24.323 505.826,22.981 507.021,21.639 508.216,22.981 	"/>
	<polygon fill="#595D7B" points="547.092,141.235 545.896,139.892 547.092,138.551 548.287,139.894 	"/>
	<polygon fill="#595D7B" points="234.838,65.676 233.643,64.334 234.838,62.993 236.032,64.334 	"/>
	<polygon fill="#595D7B" points="538.902,87.63 538.704,85.746 540.383,85.523 540.583,87.408 	"/>
	<polygon fill="#595D7B" points="388.703,38.256 387.507,36.915 388.702,35.572 389.897,36.914 	"/>
	<polygon fill="#595D7B" points="339.274,27.994 338.078,26.652 339.272,25.31 340.468,26.652 	"/>
	<polygon display="none" fill="#595D7B" points="528.25,79.401 526.939,77.93 528.25,76.458 529.56,77.93 	"/>
	<polygon fill="#595D7B" points="367.656,19.286 366.345,17.814 367.656,16.343 368.966,17.814 	"/>
	<polygon fill="#595D7B" points="465.486,123.641 463.636,121.562 465.486,119.485 467.337,121.563 	"/>
	<polygon fill="#595D7B" points="583.412,95.906 582.101,94.435 583.411,92.962 584.723,94.434 	"/>
	<polygon display="none" fill="#595D7B" points="648.527,58.346 646.678,56.269 648.528,54.191 650.379,56.269 	"/>
	<polygon display="none" fill="#595D7B" points="546.585,83.533 545.273,82.062 546.585,80.59 547.895,82.062 	"/>
	<polygon fill="#595D7B" points="443.352,21.779 442.042,20.308 443.352,18.836 444.663,20.308 	"/>
	<polygon fill="#595D7B" points="776.426,107.858 774.575,105.781 776.426,103.703 778.277,105.78 	"/>
	<polygon display="none" fill="#595D7B" points="566.01,61.652 564.7,60.181 566.011,58.709 567.322,60.18 	"/>
	<polygon display="none" fill="#595D7B" points="658.099,91.361 656.248,89.284 658.099,87.206 659.948,89.283 	"/>
	<polygon fill="#595D7B" points="696.998,54.862 695.454,53.131 696.997,51.399 698.539,53.131 	"/>
	<polygon fill="#595D7B" points="682.588,153.565 680.737,151.489 682.588,149.411 684.438,151.487 	"/>
	<polygon fill="#595D7B" points="255.36,123.066 253.51,120.988 255.36,118.91 257.211,120.988 	"/>
	<polygon fill="#595D7B" points="555.377,47.544 554.065,46.073 555.377,44.601 556.688,46.073 	"/>
	<polygon fill="#595D7B" points="611.201,134.897 609.891,133.426 611.2,131.954 612.512,133.426 	"/>
	<polygon fill="#595D7B" points="595.404,62.504 594.093,61.033 595.404,59.561 596.715,61.033 	"/>
	<polygon fill="#595D7B" points="533.464,14.239 531.614,12.162 533.465,10.083 535.315,12.161 	"/>
	<polygon fill="#595D7B" points="842.53,126.03 840.682,123.953 842.53,121.875 844.383,123.953 	"/>
	<polygon fill="#595D7B" points="839.561,22.914 837.709,20.836 839.561,18.758 841.411,20.836 	"/>
	<polygon fill="#595D7B" points="516.313,63.113 515.002,61.643 516.313,60.17 517.624,61.642 	"/>
	<polygon fill="#595D7B" points="743.373,66.752 742.293,65.54 743.373,64.329 744.453,65.541 	"/>
	<polygon fill="#595D7B" points="426.982,62.114 425.132,60.037 426.982,57.958 428.834,60.036 	"/>
	<polygon fill="#595D7B" points="486.141,86.638 484.946,85.297 486.142,83.955 487.336,85.296 	"/>
	<polygon fill="#595D7B" points="365.109,28.122 363.916,26.781 365.11,25.44 366.305,26.781 	"/>
	<polygon fill="#595D7B" points="333.378,57.923 332.183,56.582 333.378,55.24 334.573,56.582 	"/>
	<polygon fill="#595D7B" points="937.894,81.249 939.46,81.955 938.831,83.715 937.264,83.01 	"/>
	<polygon fill="#595D7B" points="977.753,151.98 979.32,152.687 978.691,154.448 977.124,153.742 	"/>
	<polygon fill="#595D7B" points="899.964,62.31 901.533,63.016 900.904,64.777 899.335,64.071 	"/>
	<polygon fill="#595D7B" points="926.265,107.871 927.106,109.516 925.643,110.462 924.8,108.817 	"/>
	<polygon fill="#595D7B" points="1081.622,87.043 1083.19,87.75 1082.562,89.511 1080.993,88.805 	"/>
	<polygon fill="#595D7B" points="1130.674,74.53 1132.243,75.236 1131.613,76.998 1130.045,76.292 	"/>
	<polygon fill="#595D7B" points="1107.718,95.196 1109.438,95.971 1108.749,97.903 1107.028,97.128 	"/>
	<polygon fill="#595D7B" points="882.547,120.064 884.268,120.839 883.578,122.77 881.857,121.996 	"/>
	<polygon fill="#595D7B" points="1037.147,126.241 1038.868,127.016 1038.178,128.947 1036.458,128.172 	"/>
	<polygon fill="#595D7B" points="1071.031,125.53 1072.752,126.305 1072.062,128.236 1070.34,127.461 	"/>
	<polygon fill="#595D7B" points="925.133,152.019 926.854,152.792 926.163,154.724 924.444,153.95 	"/>
	<polygon fill="#595D7B" points="883.04,155.973 884.762,156.748 884.07,158.68 882.35,157.905 	"/>
	<polygon fill="#595D7B" points="955.603,120.536 957.323,121.311 956.634,123.242 954.913,122.467 	"/>
	<polygon fill="#595D7B" points="975.266,85.538 976.835,86.244 976.205,88.006 974.637,87.299 	"/>
	<polygon fill="#595D7B" points="1106.92,85.979 1108.489,86.685 1107.86,88.446 1106.292,87.74 	"/>
	<polygon fill="#595D7B" points="1125.563,44.498 1127.133,45.205 1126.504,46.965 1124.936,46.259 	"/>
	<polygon fill="#595D7B" points="1068.866,14.042 1071.462,14.42 1071.125,17.334 1068.53,16.956 	"/>
	<polygon fill="#595D7B" points="871.51,37.058 874.105,37.436 873.769,40.35 871.174,39.971 	"/>
	<polygon fill="#595D7B" points="811.812,58.91 814.407,59.288 814.071,62.201 811.474,61.824 	"/>
	<polygon fill="#595D7B" points="972.258,39.669 974.854,40.047 974.519,42.961 971.923,42.583 	"/>
	<polygon fill="#595D7B" points="899.902,33.689 902.498,34.067 902.16,36.98 899.566,36.603 	"/>
	<polygon fill="#595D7B" points="1076.988,32.131 1079.584,32.51 1079.248,35.423 1076.651,35.044 	"/>
	<polygon fill="#595D7B" points="1013.147,36.852 1015.743,37.229 1015.407,40.143 1012.812,39.765 	"/>
	<polygon fill="#595D7B" points="908.582,24.692 911.177,25.071 910.84,27.984 908.244,27.606 	"/>
	<polygon fill="#595D7B" points="1077.099,59.153 1079.693,59.531 1079.357,62.445 1076.762,62.066 	"/>
	<polygon fill="#595D7B" points="1034.662,79.256 1032.812,77.179 1034.663,75.1 1036.515,77.177 	"/>
	<polygon fill="#595D7B" points="1004.265,96.052 1002.414,93.974 1004.265,91.897 1006.115,93.975 	"/>
	<polygon fill="#595D7B" points="1088.039,147.402 1086.19,145.324 1088.039,143.248 1089.89,145.326 	"/>
	<polygon fill="#595D7B" points="1097.957,50.251 1096.108,48.174 1097.959,46.096 1099.809,48.174 	"/>
	<polygon fill="#595D7B" points="987.315,29.849 986.12,28.507 987.315,27.165 988.51,28.506 	"/>
	<polygon fill="#595D7B" points="141.263,67.069 140.183,65.857 141.263,64.645 142.342,65.857 	"/>
	<polygon fill="#595D7B" points="143.146,101.75 141.295,99.673 143.146,97.596 144.998,99.672 	"/>
	<polygon fill="#595D7B" points="137.222,157.954 135.371,155.877 137.222,153.799 139.072,155.877 	"/>
	<polygon fill="#595D7B" points="80.838,117.543 78.988,115.465 80.838,113.387 82.689,115.465 	"/>
	<polygon fill="#595D7B" points="101.617,88.787 99.767,86.709 101.617,84.631 103.468,86.708 	"/>
	<polygon fill="#595D7B" points="17.604,53.538 15.754,51.46 17.604,49.382 19.455,51.46 	"/>
	<polygon fill="#595D7B" points="69.506,96.945 67.656,94.868 69.506,92.79 71.357,94.868 	"/>
	<polygon fill="#595D7B" points="34.072,131.503 32.222,129.425 34.072,127.348 35.923,129.425 	"/>
	<polygon fill="#595D7B" points="63.248,26.672 61.396,24.595 63.248,22.517 65.098,24.594 	"/>
	<polygon fill="#595D7B" points="117.747,35.367 116.667,34.155 117.747,32.943 118.826,34.155 	"/>
	<polygon fill="#595D7B" points="32.218,45.654 30.368,43.577 32.218,41.499 34.069,43.577 	"/>
	<polygon fill="#595D7B" points="165.254,107.975 163.403,105.897 165.254,103.82 167.104,105.897 	"/>
	<polygon fill="#595D7B" points="85.689,54.974 84.146,53.243 85.689,51.511 87.231,53.242 	"/>
	<polygon fill="#595D7B" points="71.326,153.779 69.476,151.701 71.326,149.624 73.176,151.702 	"/>
	<polygon fill="#595D7B" points="132.195,66.891 131.116,65.679 132.194,64.466 133.275,65.678 	"/>
	<polygon fill="#595D7B" points="160.879,38.35 159.028,36.272 160.878,34.195 162.729,36.272 	"/>
	<polygon fill="#595D7B" points="244.593,20.223 245.435,21.868 243.97,22.814 243.127,21.169 	"/>
	<polygon fill="#595D7B" points="200.832,32.399 202.553,33.174 201.862,35.105 200.142,34.331 	"/>
	<polygon fill="#595D7B" points="243.427,64.359 245.147,65.133 244.458,67.065 242.737,66.291 	"/>
	<polygon fill="#595D7B" points="201.447,68.318 203.168,69.092 202.478,71.024 200.757,70.25 	"/>
	<polygon fill="#595D7B" points="274.02,32.952 275.74,33.727 275.05,35.658 273.33,34.884 	"/>
	<polygon fill="#595D7B" points="215.474,160.157 213.623,158.08 215.474,156.002 217.325,158.08 	"/>
	<polygon fill="#595D7B" points="234.761,117.933 233.566,116.591 234.761,115.25 235.955,116.592 	"/>
	<polygon fill="#595D7B" points="181.361,134.407 179.511,132.33 181.361,130.253 183.212,132.331 	"/>
	<polygon fill="#595D7B" points="202.021,97.324 200.827,95.983 202.022,94.642 203.216,95.983 	"/>
	<polygon fill="#595D7B" points="1161.864,93.235 1160.014,91.157 1161.864,89.08 1163.715,91.156 	"/>
	<polygon fill="#595D7B" points="1282.911,39.973 1281.062,37.895 1282.911,35.818 1284.764,37.896 	"/>
	<polygon fill="#595D7B" points="1322.428,19.454 1320.577,17.376 1322.428,15.299 1324.277,17.377 	"/>
	<polygon fill="#595D7B" points="1381.614,43.112 1379.764,41.034 1381.614,38.957 1383.464,41.035 	"/>
	<polygon fill="#595D7B" points="1252.358,139.12 1250.505,137.042 1252.357,134.964 1254.207,137.042 	"/>
	<polygon fill="#595D7B" points="1223.282,49.137 1221.434,47.06 1223.282,44.981 1225.135,47.06 	"/>
	<polygon fill="#595D7B" points="1201.313,88.653 1199.464,86.575 1201.313,84.498 1203.163,86.576 	"/>
	<polygon fill="#595D7B" points="1165.208,73.309 1163.357,71.231 1165.21,69.153 1167.059,71.231 	"/>
	<polygon fill="#595D7B" points="1365.639,113.662 1363.787,111.583 1365.64,109.506 1367.488,111.584 	"/>
	<polygon fill="#595D7B" points="1372.584,32.324 1371.389,30.983 1372.584,29.641 1373.779,30.983 	"/>
	<polygon fill="#595D7B" points="1271.655,96.663 1270.46,95.321 1271.655,93.98 1272.852,95.321 	"/>
	<polygon fill="#595D7B" points="1259.762,14.154 1258.565,12.812 1259.762,11.471 1260.956,12.813 	"/>
	<polygon fill="#595D7B" points="1299.939,130.855 1298.745,129.514 1299.939,128.172 1301.135,129.514 	"/>
	<polygon fill="#595D7B" points="1291.597,77.317 1291.397,75.433 1293.076,75.21 1293.275,77.095 	"/>
	<polygon fill="#595D7B" points="1218.216,113.336 1216.365,111.258 1218.216,109.181 1220.065,111.258 	"/>
	<polygon fill="#595D7B" points="1336.131,85.552 1334.819,84.081 1336.131,82.609 1337.441,84.081 	"/>
	<polygon fill="#595D7B" points="1196.059,11.501 1194.748,10.03 1196.058,8.558 1197.368,10.03 	"/>
	<polygon fill="#595D7B" points="1308.18,37.279 1306.87,35.808 1308.18,34.336 1309.49,35.808 	"/>
	<polygon fill="#595D7B" points="1363.965,124.679 1362.652,123.208 1363.965,121.736 1365.275,123.208 	"/>
	<polygon fill="#595D7B" points="1348.222,52.079 1346.912,50.607 1348.222,49.136 1349.532,50.607 	"/>
	<polygon fill="#595D7B" points="1269.262,52.697 1267.952,51.226 1269.262,49.754 1270.573,51.226 	"/>
	<polygon fill="#595D7B" points="1179.672,51.775 1177.82,49.697 1179.672,47.619 1181.522,49.698 	"/>
	<polygon fill="#595D7B" points="1238.783,76.331 1237.589,74.989 1238.783,73.648 1239.979,74.99 	"/>
</g>
<linearGradient id="SVGID_1_" gradientUnits="userSpaceOnUse" x1="-512.4834" y1="1207.0635" x2="-419.1272" y2="1208.4871" gradientTransform="matrix(0.999 0.0438 -0.0438 0.999 1084.5552 -1138.7109)">
	<stop  offset="0" style="stop-color:#F3FAFE"/>
	<stop  offset="0.2092" style="stop-color:#F3C187"/>
	<stop  offset="0.4322" style="stop-color:#EB8E81"/>
	<stop  offset="0.4645" style="stop-color:#C77E75"/>
	<stop  offset="0.5125" style="stop-color:#9A6C67"/>
	<stop  offset="0.5623" style="stop-color:#715B5A"/>
	<stop  offset="0.613" style="stop-color:#514D4F"/>
	<stop  offset="0.665" style="stop-color:#374247"/>
	<stop  offset="0.7187" style="stop-color:#253B42"/>
	<stop  offset="0.7754" style="stop-color:#19353D"/>
	<stop  offset="0.8399" style="stop-color:#17343C"/>
</linearGradient>
<path display="none" fill="url(#SVGID_1_)" d="M525.905,43.053c-1.745-0.061-3.489-0.184-5.235-0.245l-0.873,0.49l0.818,0.551
	c3.925,0.184,7.96,0.306,12.049,0.489c33.638,1.653,63.35,4.775,81.723,8.019C597.16,48.623,564.068,44.95,525.905,43.053z"/>
</svg>
