<?xml version="1.0" encoding="utf-8"?>
<!-- Generator: Adobe Illustrator 16.0.0, SVG Export Plug-In . SVG Version: 6.00 Build 0)  -->
<!DOCTYPE svg PUBLIC "-//W3C//DTD SVG 1.1//EN" "http://www.w3.org/Graphics/SVG/1.1/DTD/svg11.dtd">
<svg version="1.1" id="Layer_1" xmlns="http://www.w3.org/2000/svg" xmlns:xlink="http://www.w3.org/1999/xlink" x="0px" y="0px"
	 width="2560px" height="445.5px" viewBox="0 0 2560 445.5" enable-background="new 0 0 2560 445.5" xml:space="preserve">
<linearGradient id="sky_x2F_space_2_" gradientUnits="userSpaceOnUse" x1="932.8745" y1="442.0908" x2="921.6138" y2="-81.027" gradientTransform="matrix(1 0 0 1 354 100)">
	<stop  offset="0" style="stop-color:#F3C187"/>
	<stop  offset="0.0527" style="stop-color:#F4AA8D"/>
	<stop  offset="0.1315" style="stop-color:#D47A66"/>
	<stop  offset="0.3231" style="stop-color:#4E5763"/>
	<stop  offset="0.5913" style="stop-color:#0C3C4C"/>
	<stop  offset="1" style="stop-color:#0E1C22"/>
</linearGradient>
<rect id="sky_x2F_space_1_" x="-3.05" y="-4.95" fill="url(#sky_x2F_space_2_)" width="2566.1" height="455.4"/>
<g id="stars_1_">
	
		<rect x="553.611" y="22.786" transform="matrix(0.7071 0.7071 -0.7071 0.7071 179.9609 -385.4929)" fill="#575C7A" width="3.4" height="3.4"/>
	
		<rect x="743.003" y="156.391" transform="matrix(0.707 0.7072 -0.7072 0.707 330.6973 -480.6309)" fill="#575C7A" width="4.8" height="4.8"/>
	
		<rect x="965.22" y="69.378" transform="matrix(0.7072 0.7071 -0.7071 0.7072 334.1115 -663.1418)" fill="#575C7A" width="4.8" height="4.8"/>
	
		<rect x="608.438" y="125.16" transform="matrix(0.7072 0.7071 -0.7071 0.7072 269.0713 -394.5416)" fill="#575C7A" width="4.8" height="4.8"/>
	
		<rect x="1109.409" y="12.241" transform="matrix(0.707 0.7072 -0.7072 0.707 335.6626 -781.7809)" fill="#575C7A" width="4" height="4"/>
	
		<rect x="1373.8" y="99.066" transform="matrix(0.7072 0.707 -0.707 0.7072 473.6987 -942.8766)" fill="#575C7A" width="2.8" height="2.8"/>
	
		<rect x="1258.599" y="46.296" transform="matrix(0.707 0.7072 -0.7072 0.707 403.9042 -877.5217)" display="none" fill="#575C7A" width="4.8" height="4.8"/>
	
		<rect x="1376.28" y="153.225" transform="matrix(0.7071 0.7072 -0.7072 0.7071 513.9275 -929.3545)" fill="#575C7A" width="4.8" height="4.8"/>
	
		<rect x="552.739" y="152.6" transform="matrix(0.7071 0.7072 -0.7072 0.7071 272.2337 -347.1644)" fill="#575C7A" width="4.8" height="4.8"/>
	
		<rect x="564.331" y="205.515" transform="matrix(0.7071 0.7072 -0.7072 0.7071 313.0489 -339.8604)" fill="#575C7A" width="4.8" height="4.8"/>
	
		<rect x="1365.568" y="245.334" transform="matrix(0.7071 0.7071 -0.7071 0.7071 575.8425 -894.7399)" fill="#575C7A" width="4.799" height="4.799"/>
	
		<rect x="1261.993" y="178.983" transform="matrix(0.7072 0.7071 -0.7071 0.7072 498.5158 -840.8804)" fill="#575C7A" width="4.8" height="4.8"/>
	
		<rect x="1437.876" y="72.842" transform="matrix(0.7072 0.7071 -0.7071 0.7072 474.9744 -996.3219)" fill="#575C7A" width="4.8" height="4.8"/>
	
		<rect x="945.109" y="185.899" transform="matrix(0.7072 0.7071 -0.7071 0.7072 410.6089 -614.7997)" display="none" fill="#575C7A" width="4.8" height="4.8"/>
	
		<rect x="1037.661" y="35.952" transform="matrix(0.707 0.7072 -0.7072 0.707 331.8554 -724.3027)" fill="#575C7A" width="4.8" height="4.799"/>
	
		<rect x="1300.188" y="132.206" transform="matrix(0.7071 0.7072 -0.7072 0.7071 476.7731 -881.703)" fill="#575C7A" width="4.8" height="4.8"/>
	
		<rect x="1146.161" y="74.747" transform="matrix(0.7072 0.7071 -0.7071 0.7072 390.895 -789.5052)" fill="#575C7A" width="4.8" height="4.8"/>
	
		<rect x="908.937" y="231.44" transform="matrix(0.7071 0.7071 -0.7071 0.7071 432.2745 -575.9222)" fill="#575C7A" width="4.801" height="4.8"/>
	
		<rect x="1241.278" y="145.322" transform="matrix(0.7071 0.7072 -0.7072 0.7071 468.791 -836.2019)" fill="#575C7A" width="4.8" height="4.8"/>
	
		<rect x="992.898" y="8.541" transform="matrix(0.7072 0.7071 -0.7071 0.7072 299.2014 -700.5272)" fill="#575C7A" width="4.8" height="4.801"/>
	
		<rect x="855.591" y="84.276" transform="matrix(0.7071 0.7072 -0.7072 0.7071 312.6368 -581.3439)" fill="#575C7A" width="4.8" height="4.8"/>
	
		<rect x="636.154" y="74.327" transform="matrix(0.7072 0.707 -0.707 0.7072 241.2095 -428.9957)" fill="#575C7A" width="4.8" height="4.801"/>
	
		<rect x="1114.216" y="37.97" transform="matrix(0.7072 0.7071 -0.7071 0.7072 355.5365 -777.688)" display="none" fill="#575C7A" width="4.8" height="4.8"/>
	
		<rect x="1554.867" y="118.43" transform="matrix(0.7071 0.7072 -0.7072 0.7071 541.6377 -1065.8367)" fill="#575C7A" width="4.8" height="4.8"/>
	
		<rect x="1176.296" y="202.092" transform="matrix(0.7072 0.7071 -0.7071 0.7072 489.7592 -773.52)" fill="#575C7A" width="4.8" height="4.8"/>
	
		<rect x="1229.826" y="30.487" transform="matrix(0.707 0.7072 -0.7072 0.707 384.2933 -861.8049)" fill="#575C7A" width="4.8" height="4.799"/>
	
		<rect x="1110.068" y="176.538" transform="matrix(0.7071 0.7072 -0.7072 0.7071 452.4283 -734.2713)" display="none" fill="#575C7A" width="4.8" height="4.8"/>
	
		<rect x="1061.879" y="85.229" transform="matrix(0.7071 0.7072 -0.7072 0.7071 373.7416 -726.9422)" display="none" fill="#575C7A" width="4.8" height="4.8"/>
	
		<rect x="1330.892" y="47.163" transform="matrix(0.707 0.7072 -0.7072 0.707 424.679 -927.9608)" fill="#575C7A" width="2.8" height="2.8"/>
	
		<rect x="699.63" y="202.022" transform="matrix(0.7072 0.7071 -0.7071 0.7072 350.1223 -436.5111)" fill="#575C7A" width="4.8" height="4.8"/>
	
		<rect x="815.423" y="149.275" transform="matrix(0.7071 0.7071 -0.7071 0.7071 346.7854 -533.8637)" fill="#575C7A" width="4.801" height="4.8"/>
	
		<rect x="749.308" y="123.81" transform="matrix(0.7072 0.7071 -0.7071 0.7072 309.3694 -494.5399)" fill="#575C7A" width="4.8" height="4.8"/>
	
		<rect x="1116.618" y="189.608" transform="matrix(0.7072 0.7071 -0.7071 0.7072 463.4563 -734.9807)" fill="#575C7A" width="4.8" height="4.8"/>
	
		<rect x="610.236" y="234.841" transform="matrix(0.707 0.7072 -0.7072 0.707 347.2778 -363.7509)" fill="#575C7A" width="4.8" height="4.799"/>
	
		<rect x="1172.913" y="61.64" transform="matrix(0.7071 0.7071 -0.7071 0.7071 389.5241 -812.3154)" fill="#575C7A" width="4.801" height="4.8"/>
	
		<rect x="440.373" y="236.604" transform="matrix(0.707 0.7072 -0.7072 0.707 298.756 -243.1062)" fill="#575C7A" width="4.8" height="4.8"/>
	
		<rect x="1130.509" y="59.034" transform="matrix(0.7072 0.707 -0.707 0.7072 374.3181 -782.6572)" fill="#575C7A" width="3.1" height="3.1"/>
	
		<rect x="945.281" y="164.186" transform="matrix(0.7072 0.707 -0.707 0.7072 394.4261 -620.9061)" fill="#575C7A" width="3.1" height="3.1"/>
	
		<rect x="923.562" y="29.009" transform="matrix(0.7072 0.707 -0.707 0.7072 292.4926 -645.1321)" fill="#575C7A" width="3.1" height="3.1"/>
	
		<rect x="997.158" y="219.947" transform="matrix(0.7069 0.7073 -0.7073 0.7069 449.3291 -641.4407)" fill="#575C7A" width="3.1" height="3.1"/>
	
		<rect x="424.313" y="96.568" transform="matrix(0.7072 0.707 -0.707 0.7072 194.0711 -272.3669)" fill="#575C7A" width="3.1" height="3.1"/>
	
		<rect x="983.399" y="132.905" transform="matrix(0.1175 0.9931 -0.9931 0.1175 1002.7422 -859.4697)" fill="#575C7A" width="3.1" height="3.101"/>
	
		<rect x="706.539" y="51.772" transform="matrix(0.7072 0.707 -0.707 0.7072 245.0387 -485.0253)" fill="#575C7A" width="3.1" height="3.1"/>
	
		<rect x="615.886" y="34.994" transform="matrix(0.7072 0.707 -0.707 0.7072 206.6323 -425.8442)" fill="#575C7A" width="3.1" height="3.1"/>
	
		<rect x="962.351" y="118.629" transform="matrix(0.707 0.7073 -0.7073 0.707 367.6051 -646.5645)" display="none" fill="#575C7A" width="3.399" height="3.399"/>
	
		<rect x="667.784" y="20.418" transform="matrix(0.7071 0.7071 -0.7071 0.7071 211.7273 -466.9187)" fill="#575C7A" width="3.4" height="3.4"/>
	
		<rect x="846.496" y="189.161" transform="matrix(0.7071 0.7072 -0.7072 0.7071 384.1425 -544.1865)" fill="#575C7A" width="4.8" height="4.8"/>
	
		<rect x="1063.566" y="145.566" transform="matrix(0.7071 0.7071 -0.7071 0.7071 416.1418 -710.1234)" fill="#575C7A" width="3.4" height="3.4"/>
	
		<rect x="1182.217" y="82.477" transform="matrix(0.7071 0.7072 -0.7072 0.7071 407.0477 -812.847)" display="none" fill="#575C7A" width="4.8" height="4.8"/>
	
		<rect x="995.982" y="125.379" transform="matrix(0.7071 0.7071 -0.7071 0.7071 382.0726 -668.2468)" display="none" fill="#575C7A" width="3.4" height="3.4"/>
	
		<rect x="806.628" y="24.493" transform="matrix(0.7071 0.7071 -0.7071 0.7071 255.2745 -563.9023)" fill="#575C7A" width="3.4" height="3.399"/>
	
		<rect x="1416.865" y="163.429" transform="matrix(0.7072 0.7071 -0.7071 0.7072 532.8716 -954.9384)" fill="#575C7A" width="4.8" height="4.8"/>
	
		<rect x="1031.614" y="89.632" transform="matrix(0.707 0.7072 -0.7072 0.707 367.3127 -703.9805)" display="none" fill="#575C7A" width="3.399" height="3.4"/>
	
		<rect x="1199.825" y="136.477" transform="matrix(0.7072 0.7071 -0.7071 0.7072 450.2567 -809.3715)" display="none" fill="#575C7A" width="4.8" height="4.8"/>
	
		<rect x="1271.574" y="77.814" transform="matrix(0.7072 0.707 -0.707 0.7072 429.3755 -877.1033)" fill="#575C7A" width="4.001" height="4"/>
	
		<rect x="1244.745" y="238.101" transform="matrix(0.7072 0.707 -0.707 0.7072 535.1885 -811.3213)" fill="#575C7A" width="4.8" height="4.8"/>
	
		<rect x="461.095" y="188.241" transform="matrix(0.7072 0.7071 -0.7071 0.7072 270.5247 -271.8896)" fill="#575C7A" width="4.8" height="4.8"/>
	
		<rect x="1012.109" y="66.584" transform="matrix(0.7071 0.7071 -0.7071 0.7071 345.2222 -696.8716)" fill="#575C7A" width="3.4" height="3.4"/>
	
		<rect x="1114.504" y="209.292" transform="matrix(0.7072 0.707 -0.707 0.7072 476.0275 -727.4122)" fill="#575C7A" width="3.4" height="3.4"/>
	
		<rect x="1085.528" y="91.024" transform="matrix(0.7071 0.7071 -0.7071 0.7071 384.0079 -741.6283)" fill="#575C7A" width="3.4" height="3.4"/>
	
		<rect x="971.216" y="10.482" transform="matrix(0.7072 0.7071 -0.7071 0.7072 294.2248 -684.6285)" fill="#575C7A" width="4.8" height="4.801"/>
	
		<rect x="1538.054" y="193.029" transform="matrix(0.7072 0.7071 -0.7071 0.7072 589.2892 -1031.9574)" fill="#575C7A" width="4.8" height="4.8"/>
	
		<rect x="1532.594" y="24.575" transform="matrix(0.7072 0.7071 -0.7071 0.7072 468.5841 -1077.427)" fill="#575C7A" width="4.8" height="4.8"/>
	
		<rect x="940.486" y="91.996" transform="matrix(0.7071 0.7071 -0.7071 0.7071 342.2134 -638.7834)" fill="#575C7A" width="3.4" height="3.4"/>
	
		<rect x="1357.239" y="98.688" transform="matrix(0.707 0.7072 -0.7072 0.707 468.8363 -931.4972)" fill="#575C7A" width="2.8" height="2.799"/>
	
		<rect x="775.903" y="88.696" transform="matrix(0.7072 0.7071 -0.7071 0.7072 292.3303 -523.6271)" fill="#575C7A" width="4.8" height="4.8"/>
	
		<rect x="885.242" y="130.83" transform="matrix(0.7072 0.707 -0.707 0.7072 353.2618 -588.2241)" fill="#575C7A" width="3.1" height="3.1"/>
	
		<rect x="663.25" y="35.231" transform="matrix(0.707 0.7072 -0.7072 0.707 220.7786 -459.3611)" fill="#575C7A" width="3.099" height="3.099"/>
	
		<rect x="605.059" y="83.902" transform="matrix(0.7071 0.7071 -0.7071 0.7071 238.0958 -403.9092)" fill="#575C7A" width="3.1" height="3.1"/>
	
		<rect x="1714.767" y="126.171" transform="matrix(-0.9282 -0.372 0.372 -0.9282 3261.957 884.7256)" fill="#575C7A" width="3.1" height="3.1"/>
	
		<rect x="1787.858" y="241.771" transform="matrix(-0.9282 -0.372 0.372 -0.9282 3359.8916 1134.8185)" fill="#575C7A" width="3.1" height="3.1"/>
	
		<rect x="1645.176" y="95.275" transform="matrix(-0.9282 -0.3721 0.3721 -0.9282 3139.1787 799.4397)" fill="#575C7A" width="3.1" height="3.1"/>
	
		<rect x="1691.938" y="169.738" transform="matrix(-0.4986 -0.8668 0.8668 -0.4986 2389.4062 1724.6515)" fill="#575C7A" width="3.1" height="3.1"/>
	
		<rect x="1978.479" y="135.562" transform="matrix(-0.9282 -0.3721 0.3721 -0.9282 3766.8374 1001.1933)" fill="#575C7A" width="3.101" height="3.1"/>
	
		<rect x="2068.262" y="115.254" transform="matrix(-0.9282 -0.372 0.372 -0.9282 3947.6406 995.1705)" fill="#575C7A" width="3.1" height="3.1"/>
	
		<rect x="2026.18" y="149.047" transform="matrix(-0.9282 -0.3722 0.3722 -0.9282 3853.9937 1045.3582)" fill="#575C7A" width="3.399" height="3.4"/>
	
		<rect x="1613.164" y="189.675" transform="matrix(-0.9282 -0.3722 0.3722 -0.9282 3042.5083 969.9872)" fill="#575C7A" width="3.399" height="3.4"/>
	
		<rect x="1896.662" y="199.754" transform="matrix(-0.9282 -0.3721 0.3721 -0.9282 3585.4863 1094.7488)" fill="#575C7A" width="3.4" height="3.4"/>
	
		<rect x="1959.057" y="198.67" transform="matrix(-0.9282 -0.3722 0.3722 -0.9282 3706.0796 1116.1055)" fill="#575C7A" width="3.401" height="3.4"/>
	
		<rect x="1691.276" y="241.877" transform="matrix(-0.9282 -0.372 0.372 -0.9282 3173.8086 1099.5145)" fill="#575C7A" width="3.399" height="3.4"/>
	
		<rect x="1614.066" y="248.339" transform="matrix(-0.9282 -0.3722 0.3722 -0.9282 3022.3953 1083.4758)" fill="#575C7A" width="3.401" height="3.401"/>
	
		<rect x="1747.269" y="190.453" transform="matrix(-0.9282 -0.3722 0.3722 -0.9282 3300.7964 1021.3973)" fill="#575C7A" width="3.399" height="3.4"/>
	
		<rect x="1783.274" y="133.272" transform="matrix(-0.9282 -0.3721 0.3721 -0.9282 3391.3198 924.0892)" fill="#575C7A" width="3.1" height="3.1"/>
	
		<rect x="2024.784" y="133.944" transform="matrix(-0.9281 -0.3722 0.3722 -0.9281 3856.6187 1015.5172)" fill="#575C7A" width="3.1" height="3.1"/>
	
		<rect x="2059.071" y="66.254" transform="matrix(-0.9282 -0.3721 0.3721 -0.9282 3948.0476 897.4892)" fill="#575C7A" width="3.1" height="3.1"/>
	
		<rect x="1955.318" y="16.245" transform="matrix(-0.9917 -0.1285 0.1285 -0.9917 3896.8127 288.6838)" fill="#575C7A" width="4.8" height="4.8"/>
	
		<rect x="1593.323" y="53.845" transform="matrix(-0.9917 -0.1285 0.1285 -0.9917 3170.9988 317.0179)" fill="#575C7A" width="4.801" height="4.8"/>
	
		<rect x="1483.824" y="89.544" transform="matrix(-0.9917 -0.1285 0.1285 -0.9917 2948.3145 374.092)" fill="#575C7A" width="4.8" height="4.8"/>
	
		<rect x="1778.12" y="58.243" transform="matrix(-0.9917 -0.1286 0.1286 -0.9917 3538.468 349.6961)" fill="#575C7A" width="4.801" height="4.8"/>
	
		<rect x="1645.423" y="48.342" transform="matrix(-0.9917 -0.1285 0.1285 -0.9917 3275.4663 312.7933)" fill="#575C7A" width="4.8" height="4.8"/>
	
		<rect x="1970.22" y="45.942" transform="matrix(-0.9917 -0.1286 0.1286 -0.9917 3922.6545 349.8924)" fill="#575C7A" width="4.801" height="4.799"/>
	
		<rect x="1853.12" y="53.644" transform="matrix(-0.9917 -0.1285 0.1285 -0.9917 3688.4666 349.994)" fill="#575C7A" width="4.801" height="4.8"/>
	
		<rect x="1661.321" y="33.643" transform="matrix(-0.9917 -0.1285 0.1285 -0.9917 3309.0266 285.5173)" fill="#575C7A" width="4.801" height="4.8"/>
	
		<rect x="1970.417" y="89.941" transform="matrix(-0.9917 -0.1285 0.1285 -0.9917 3917.4155 437.4055)" fill="#575C7A" width="4.8" height="4.8"/>
	
		<rect x="1890.534" y="116.701" transform="matrix(0.7072 0.7071 -0.7071 0.7072 638.5427 -1303.5327)" fill="#575C7A" width="4.8" height="4.801"/>
	
		<rect x="1834.776" y="144.142" transform="matrix(0.707 0.7072 -0.7072 0.707 641.9186 -1256.3304)" fill="#575C7A" width="4.8" height="4.799"/>
	
		<rect x="1988.44" y="228.033" transform="matrix(0.707 0.7072 -0.7072 0.707 746.2695 -1340.4233)" fill="#575C7A" width="4.8" height="4.799"/>
	
		<rect x="2006.732" y="69.419" transform="matrix(0.7071 0.7071 -0.7071 0.7071 639.2446 -1399.6355)" fill="#575C7A" width="4.799" height="4.8"/>
	
		<rect x="1804.536" y="38.036" transform="matrix(0.7072 0.707 -0.707 0.7072 556.837 -1265.3618)" fill="#575C7A" width="3.1" height="3.1"/>
	
		<rect x="252.829" y="99.203" transform="matrix(0.707 0.7072 -0.7072 0.707 145.6295 -150.3143)" fill="#575C7A" width="2.8" height="2.8"/>
	
		<rect x="255.279" y="153.45" transform="matrix(0.7072 0.7071 -0.7071 0.7072 185.6541 -136.5541)" fill="#575C7A" width="4.8" height="4.8"/>
	
		<rect x="244.413" y="245.27" transform="matrix(0.7071 0.7071 -0.7071 0.7071 247.4189 -101.9823)" fill="#575C7A" width="4.801" height="4.8"/>
	
		<rect x="140.992" y="179.249" transform="matrix(0.7071 0.7072 -0.7072 0.7071 170.4602 -48.1875)" fill="#575C7A" width="4.8" height="4.8"/>
	
		<rect x="179.104" y="132.271" transform="matrix(0.7072 0.7071 -0.7071 0.7072 148.3722 -88.8959)" fill="#575C7A" width="4.8" height="4.8"/>
	
		<rect x="25.006" y="74.684" transform="matrix(0.7071 0.7072 -0.7072 0.7071 62.539 3.2008)" fill="#575C7A" width="4.8" height="4.8"/>
	
		<rect x="120.206" y="145.6" transform="matrix(0.7071 0.7071 -0.7071 0.7071 140.5621 -43.3478)" fill="#575C7A" width="4.801" height="4.8"/>
	
		<rect x="55.212" y="202.057" transform="matrix(0.7072 0.7071 -0.7071 0.7072 161.4342 19.1387)" fill="#575C7A" width="4.8" height="4.8"/>
	
		<rect x="108.726" y="30.794" transform="matrix(0.7072 0.7071 -0.7071 0.7072 56.0123 -68.8517)" fill="#575C7A" width="4.8" height="4.8"/>
	
		<rect x="209.691" y="47.413" transform="matrix(0.707 0.7072 -0.7072 0.707 96.3654 -134.981)" fill="#575C7A" width="2.8" height="2.8"/>
	
		<rect x="51.812" y="61.806" transform="matrix(0.7071 0.7072 -0.7072 0.7071 61.2849 -19.5276)" fill="#575C7A" width="4.8" height="4.8"/>
	
		<rect x="295.824" y="163.595" transform="matrix(0.7071 0.7072 -0.7072 0.7071 204.7474 -162.2639)" fill="#575C7A" width="4.8" height="4.8"/>
	
		<rect x="150.303" y="77.992" transform="matrix(0.7072 0.707 -0.707 0.7072 101.1429 -84.2564)" fill="#575C7A" width="4" height="4.001"/>
	
		<rect x="123.543" y="238.45" transform="matrix(0.707 0.7072 -0.7072 0.707 207.232 -18.5004)" fill="#575C7A" width="4.8" height="4.799"/>
	
		<rect x="236.197" y="98.912" transform="matrix(0.7072 0.707 -0.707 0.7072 140.4929 -138.6141)" fill="#575C7A" width="2.8" height="2.8"/>
	
		<rect x="287.804" y="49.873" transform="matrix(0.7071 0.7071 -0.7071 0.7071 121.9612 -189.895)" fill="#575C7A" width="4.801" height="4.8"/>
	
		<rect x="441.635" y="26.62" transform="matrix(-0.4987 -0.8668 0.8668 -0.4987 639.7759 426.3641)" fill="#575C7A" width="3.1" height="3.1"/>
	
		<rect x="362.75" y="46.467" transform="matrix(-0.9282 -0.3722 0.3722 -0.9282 684.7961 228.5063)" fill="#575C7A" width="3.399" height="3.4"/>
	
		<rect x="440.862" y="98.669" transform="matrix(-0.9282 -0.3721 0.3721 -0.9282 816.0099 358.1912)" fill="#575C7A" width="3.4" height="3.4"/>
	
		<rect x="363.864" y="105.156" transform="matrix(-0.9282 -0.3722 0.3722 -0.9282 665.0965 342.0926)" fill="#575C7A" width="3.401" height="3.4"/>
	
		<rect x="496.958" y="47.357" transform="matrix(-0.9282 -0.3721 0.3721 -0.9282 943.2653 280.1218)" fill="#575C7A" width="3.4" height="3.4"/>
	
		<rect x="387.946" y="248.869" transform="matrix(0.7071 0.7071 -0.7071 0.7071 292.0043 -202.4216)" fill="#575C7A" width="4.801" height="4.801"/>
	
		<rect x="424.172" y="181.941" transform="matrix(0.707 0.7072 -0.7072 0.707 254.4865 -247.3066)" fill="#575C7A" width="3.099" height="3.099"/>
	
		<rect x="325.374" y="206.803" transform="matrix(0.707 0.7072 -0.7072 0.707 243.9861 -170.5096)" fill="#575C7A" width="4.8" height="4.799"/>
	
		<rect x="364.121" y="148.273" transform="matrix(0.707 0.7072 -0.7072 0.707 213.0835 -214.7034)" fill="#575C7A" width="3.099" height="3.099"/>
	
		<rect x="2123.852" y="139.537" transform="matrix(0.7072 0.707 -0.707 0.7072 722.8987 -1461.7129)" fill="#575C7A" width="4.8" height="4.801"/>
	
		<rect x="2345.884" y="52.526" transform="matrix(0.707 0.7072 -0.7072 0.707 726.8789 -1644.6338)" fill="#575C7A" width="4.8" height="4.799"/>
	
		<rect x="2418.368" y="18.999" transform="matrix(0.7071 0.7071 -0.7071 0.7071 724.1578 -1705.4735)" fill="#575C7A" width="4.799" height="4.8"/>
	
		<rect x="2526.926" y="57.654" transform="matrix(0.707 0.7072 -0.7072 0.707 783.5498 -1771.1656)" fill="#575C7A" width="4.8" height="4.799"/>
	
		<rect x="2289.731" y="214.376" transform="matrix(0.7071 0.7072 -0.7072 0.7071 824.7607 -1557.3949)" fill="#575C7A" width="4.8" height="4.8"/>
	
		<rect x="2236.399" y="67.382" transform="matrix(0.7071 0.7072 -0.7072 0.7071 705.1897 -1562.7416)" fill="#575C7A" width="4.8" height="4.8"/>
	
		<rect x="2196.317" y="132.168" transform="matrix(0.707 0.7072 -0.7072 0.707 739.3804 -1515.5236)" fill="#575C7A" width="4.8" height="4.799"/>
	
		<rect x="2129.986" y="106.985" transform="matrix(0.7072 0.7071 -0.7071 0.7072 701.7946 -1475.6832)" fill="#575C7A" width="4.8" height="4.801"/>
	
		<rect x="2497.508" y="172.773" transform="matrix(0.7071 0.7072 -0.7072 0.7071 856.2078 -1716.5128)" fill="#575C7A" width="4.8" height="4.8"/>
	
		<rect x="2511.213" y="42.082" transform="matrix(0.7071 0.7071 -0.7071 0.7071 766.8241 -1764.0126)" fill="#575C7A" width="3.1" height="3.1"/>
	
		<rect x="2326.086" y="147.192" transform="matrix(0.7071 0.7071 -0.7071 0.7071 786.9253 -1602.3223)" fill="#575C7A" width="3.1" height="3.1"/>
	
		<rect x="2304.451" y="12.217" transform="matrix(0.7069 0.7073 -0.7073 0.7069 685.5117 -1626.918)" fill="#575C7A" width="3.1" height="3.099"/>
	
		<rect x="2377.965" y="203.052" transform="matrix(0.707 0.7072 -0.7072 0.707 841.823 -1622.8157)" fill="#575C7A" width="3.099" height="3.1"/>
	
		<rect x="2363.976" y="116.061" transform="matrix(0.1172 0.9931 -0.9931 0.1172 2205.1577 -2245.4021)" fill="#575C7A" width="3.1" height="3.1"/>
	
		<rect x="2227.213" y="172.378" transform="matrix(0.7072 0.7071 -0.7071 0.7072 776.5033 -1525.2788)" fill="#575C7A" width="4.8" height="4.8"/>
	
		<rect x="2444.271" y="128.612" transform="matrix(0.7071 0.7071 -0.7071 0.7071 808.5531 -1691.3949)" fill="#575C7A" width="3.4" height="3.4"/>
	
		<rect x="2187.334" y="7.64" transform="matrix(0.7071 0.7071 -0.7071 0.7071 647.7578 -1545.1453)" fill="#575C7A" width="3.4" height="3.4"/>
	
		<rect x="2392.999" y="49.748" transform="matrix(0.7071 0.7071 -0.7071 0.7071 737.7706 -1678.2391)" fill="#575C7A" width="3.4" height="3.4"/>
	
		<rect x="2495.252" y="192.599" transform="matrix(0.7071 0.7071 -0.7071 0.7071 868.7303 -1708.703)" fill="#575C7A" width="3.4" height="3.4"/>
	
		<rect x="2466.306" y="74.059" transform="matrix(0.7071 0.7071 -0.7071 0.7071 776.4318 -1722.9545)" fill="#575C7A" width="3.4" height="3.4"/>
	
		<rect x="2321.381" y="74.931" transform="matrix(0.707 0.7073 -0.7073 0.707 734.9456 -1620.5441)" fill="#575C7A" width="3.399" height="3.4"/>
	
		<rect x="2156.62" y="71.915" transform="matrix(0.7071 0.7071 -0.7071 0.7071 684.9111 -1504.8916)" fill="#575C7A" width="4.801" height="4.8"/>
	
		<rect x="2265.977" y="113.806" transform="matrix(0.7069 0.7073 -0.7073 0.7069 746.0874 -1569.9354)" fill="#575C7A" width="3.1" height="3.099"/>
</g>
<linearGradient id="SVGID_1_" gradientUnits="userSpaceOnUse" x1="612.8638" y1="991.5205" x2="783.9966" y2="994.1302" gradientTransform="matrix(0.999 0.0438 -0.0438 0.999 379.6758 -952.0378)">
	<stop  offset="0" style="stop-color:#F2FAFE"/>
	<stop  offset="0.2092" style="stop-color:#F3C187"/>
	<stop  offset="0.4322" style="stop-color:#EB8D80"/>
	<stop  offset="0.4645" style="stop-color:#C77E75"/>
	<stop  offset="0.5125" style="stop-color:#996B66"/>
	<stop  offset="0.5623" style="stop-color:#705A59"/>
	<stop  offset="0.613" style="stop-color:#504C4E"/>
	<stop  offset="0.665" style="stop-color:#364146"/>
	<stop  offset="0.7187" style="stop-color:#243A41"/>
	<stop  offset="0.7754" style="stop-color:#19353D"/>
	<stop  offset="0.8399" style="stop-color:#16343C"/>
</linearGradient>
<path display="none" fill="url(#SVGID_1_)" d="M959.75,63.35c-3.2-0.1-6.4-0.3-9.601-0.4l-1.6,0.8l1.5,0.9
	c7.199,0.3,14.6,0.5,22.1,0.8c61.7,2.7,116.2,7.8,149.9,13.1C1090.45,72.45,1029.75,66.45,959.75,63.35z"/>
</svg>
