<?xml version="1.0" encoding="utf-8"?>
<!-- Generator: Adobe Illustrator 16.0.0, SVG Export Plug-In . SVG Version: 6.00 Build 0)  -->
<!DOCTYPE svg PUBLIC "-//W3C//DTD SVG 1.1//EN" "http://www.w3.org/Graphics/SVG/1.1/DTD/svg11.dtd">
<svg version="1.1" id="Layer_1" xmlns="http://www.w3.org/2000/svg" xmlns:xlink="http://www.w3.org/1999/xlink" x="0px" y="0px"
	 width="2560px" height="445.5px" viewBox="0 0 2560 445.5" enable-background="new 0 0 2560 445.5" xml:space="preserve">
<linearGradient id="sky_x2F_space_2_" gradientUnits="userSpaceOnUse" x1="578.874" y1="198.4087" x2="567.6133" y2="721.5264" gradientTransform="matrix(1 0 0 -1 708 740.5)">
	<stop  offset="0" style="stop-color:#F3C187"/>
	<stop  offset="0.0527" style="stop-color:#F4AA8D"/>
	<stop  offset="0.1315" style="stop-color:#D47A66"/>
	<stop  offset="0.3231" style="stop-color:#4E5763"/>
	<stop  offset="0.5913" style="stop-color:#0C3C4C"/>
	<stop  offset="1" style="stop-color:#0E1C22"/>
</linearGradient>
<rect id="sky_x2F_space_1_" x="-3.05" y="-4.95" fill="url(#sky_x2F_space_2_)" width="2566.1" height="455.4"/>
<g id="stars_1_">
	
		<rect x="553.608" y="22.782" transform="matrix(-0.707 -0.7073 0.7073 -0.707 930.5751 434.5305)" fill="#575C7A" width="3.399" height="3.399"/>
	
		<rect x="743" y="156.383" transform="matrix(-0.707 -0.7072 0.7072 -0.707 1160.1086 798.1969)" fill="#575C7A" width="4.8" height="4.8"/>
	
		<rect x="965.258" y="69.423" transform="matrix(-0.7072 -0.7071 0.7071 -0.7072 1601.1619 806.8024)" fill="#575C7A" width="4.8" height="4.801"/>
	
		<rect x="608.458" y="125.192" transform="matrix(-0.7072 -0.707 0.707 -0.7072 952.6541 649.707)" fill="#575C7A" width="4.8" height="4.801"/>
	
		<rect x="1109.357" y="12.276" transform="matrix(-0.707 -0.7072 0.7072 -0.707 1887.0422 810.2862)" fill="#575C7A" width="4" height="4"/>
	
		<rect x="1373.811" y="99.04" transform="matrix(-0.707 -0.7072 0.7072 -0.707 2276.4819 1143.9929)" fill="#575C7A" width="2.8" height="2.8"/>
	
		<rect x="1258.593" y="46.285" transform="matrix(-0.707 -0.7073 0.7073 -0.707 2118.0239 974.9516)" display="none" fill="#575C7A" width="4.8" height="4.8"/>
	
		<rect x="1376.334" y="153.29" transform="matrix(-0.7071 -0.7071 0.7071 -0.7071 2243.5571 1240.6926)" fill="#575C7A" width="4.801" height="4.801"/>
	
		<rect x="552.756" y="152.63" transform="matrix(-0.7071 -0.7071 0.7071 -0.7071 838.0879 657.2084)" fill="#575C7A" width="4.801" height="4.8"/>
	
		<rect x="564.346" y="205.548" transform="matrix(-0.7071 -0.7071 0.7071 -0.7071 820.4551 755.7406)" fill="#575C7A" width="4.801" height="4.801"/>
	
		<rect x="1365.56" y="245.322" transform="matrix(-0.707 -0.7072 0.7072 -0.707 2159.9238 1390.295)" fill="#575C7A" width="4.8" height="4.799"/>
	
		<rect x="1262.039" y="179.046" transform="matrix(-0.7072 -0.7071 0.7071 -0.7072 2030.3042 1203.786)" fill="#575C7A" width="4.8" height="4.8"/>
	
		<rect x="1437.934" y="72.908" transform="matrix(-0.7072 -0.7071 0.7071 -0.7072 2405.6299 1146.9598)" fill="#575C7A" width="4.8" height="4.801"/>
	
		<rect x="945.141" y="185.949" transform="matrix(-0.7072 -0.7071 0.7071 -0.7072 1484.4287 991.5056)" display="none" fill="#575C7A" width="4.8" height="4.801"/>
	
		<rect x="1037.657" y="35.944" transform="matrix(-0.707 -0.7072 0.7072 -0.707 1748.2655 800.9886)" fill="#575C7A" width="4.8" height="4.799"/>
	
		<rect x="1300.239" y="132.267" transform="matrix(-0.7071 -0.7071 0.7071 -0.7071 2128.5208 1150.9966)" fill="#575C7A" width="4.801" height="4.8"/>
	
		<rect x="1146.207" y="74.801" transform="matrix(-0.7072 -0.7071 0.7071 -0.7072 1906.2678 943.9234)" fill="#575C7A" width="4.8" height="4.8"/>
	
		<rect x="908.933" y="231.433" transform="matrix(-0.7071 -0.7071 0.7071 -0.7071 1390.3978 1043.5876)" fill="#575C7A" width="4.801" height="4.801"/>
	
		<rect x="1241.326" y="145.381" transform="matrix(-0.7071 -0.7071 0.7071 -0.7071 2018.6768 1131.7263)" fill="#575C7A" width="4.801" height="4.8"/>
	
		<rect x="992.94" y="8.585" transform="matrix(-0.7072 -0.7071 0.7071 -0.7072 1691.4344 722.5154)" fill="#575C7A" width="4.8" height="4.801"/>
	
		<rect x="855.625" y="84.316" transform="matrix(-0.707 -0.7072 0.7072 -0.707 1403.3265 754.8273)" fill="#575C7A" width="4.8" height="4.8"/>
	
		<rect x="636.149" y="74.323" transform="matrix(-0.7072 -0.707 0.707 -0.7072 1035.892 582.4406)" fill="#575C7A" width="4.8" height="4.801"/>
	
		<rect x="1114.261" y="38.021" transform="matrix(-0.7072 -0.7071 0.7071 -0.7072 1877.7378 858.5466)" display="none" fill="#575C7A" width="4.8" height="4.8"/>
	
		<rect x="1554.93" y="118.501" transform="matrix(-0.7071 -0.7071 0.7071 -0.7071 2573.0386 1307.5901)" fill="#575C7A" width="4.801" height="4.801"/>
	
		<rect x="1176.337" y="202.153" transform="matrix(-0.7071 -0.7071 0.7071 -0.7071 1867.589 1182.6862)" fill="#575C7A" width="4.801" height="4.8"/>
	
		<rect x="1229.82" y="30.477" transform="matrix(-0.707 -0.7072 0.7072 -0.707 2080.155 927.5561)" fill="#575C7A" width="4.8" height="4.799"/>
	
		<rect x="1110.109" y="176.593" transform="matrix(-0.7071 -0.7072 0.7072 -0.7071 1772.5399 1092.2711)" display="none" fill="#575C7A" width="4.801" height="4.8"/>
	
		<rect x="1061.922" y="85.278" transform="matrix(-0.7071 -0.7071 0.7071 -0.7071 1754.9137 902.266)" display="none" fill="#575C7A" width="4.801" height="4.8"/>
	
		<rect x="1330.865" y="47.17" transform="matrix(-0.7072 -0.707 0.707 -0.7072 2240.0957 1024.8564)" fill="#575C7A" width="2.8" height="2.8"/>
	
		<rect x="699.651" y="202.062" transform="matrix(-0.7072 -0.7071 0.7071 -0.7072 1053.9464 845.4377)" fill="#575C7A" width="4.8" height="4.8"/>
	
		<rect x="815.419" y="149.269" transform="matrix(-0.7071 -0.7071 0.7071 -0.7071 1288.8582 837.1999)" fill="#575C7A" width="4.801" height="4.8"/>
	
		<rect x="749.334" y="123.848" transform="matrix(-0.7072 -0.7071 0.7071 -0.7072 1194.0645 747.0439)" fill="#575C7A" width="4.8" height="4.801"/>
	
		<rect x="1116.657" y="189.665" transform="matrix(-0.7072 -0.7071 0.7071 -0.7072 1774.6062 1119.1215)" fill="#575C7A" width="4.8" height="4.8"/>
	
		<rect x="610.235" y="234.835" transform="matrix(-0.707 -0.7072 0.7072 -0.707 877.9965 838.2208)" fill="#575C7A" width="4.8" height="4.799"/>
	
		<rect x="1172.904" y="61.631" transform="matrix(-0.7072 -0.7071 0.7071 -0.7072 1961.1576 940.3179)" fill="#575C7A" width="4.802" height="4.8"/>
	
		<rect x="440.373" y="236.599" transform="matrix(-0.707 -0.7072 0.7072 -0.707 586.7939 721.1045)" fill="#575C7A" width="4.8" height="4.8"/>
	
		<rect x="1130.528" y="59.004" transform="matrix(-0.7072 -0.707 0.707 -0.7072 1889.8535 903.7866)" fill="#575C7A" width="3.1" height="3.1"/>
	
		<rect x="945.3" y="164.162" transform="matrix(-0.7071 -0.7071 0.7071 -0.7071 1499.1973 952.4117)" fill="#575C7A" width="3.099" height="3.1"/>
	
		<rect x="923.576" y="28.984" transform="matrix(-0.7072 -0.707 0.707 -0.7072 1557.7744 706.2166)" fill="#575C7A" width="3.1" height="3.1"/>
	
		<rect x="997.101" y="219.972" transform="matrix(-0.7069 -0.7073 0.7073 -0.7069 1547.876 1084.4976)" fill="#575C7A" width="3.1" height="3.1"/>
	
		<rect x="424.322" y="96.557" transform="matrix(-0.7072 -0.707 0.707 -0.7072 657.6781 468.5906)" fill="#575C7A" width="3.1" height="3.1"/>
	
		<rect x="983.396" y="132.931" transform="matrix(-0.1175 -0.9931 0.9931 -0.1175 967.126 1128.4062)" fill="#575C7A" width="3.1" height="3.102"/>
	
		<rect x="706.551" y="51.753" transform="matrix(-0.7072 -0.707 0.707 -0.7072 1171.1724 591.645)" fill="#575C7A" width="3.1" height="3.1"/>
	
		<rect x="615.896" y="34.977" transform="matrix(-0.7073 -0.7069 0.7069 -0.7073 1028.3213 498.8642)" fill="#575C7A" width="3.1" height="3.1"/>
	
		<rect x="962.381" y="118.681" transform="matrix(-0.707 -0.7073 0.7073 -0.707 1560.5107 887.3317)" display="none" fill="#575C7A" width="3.399" height="3.399"/>
	
		<rect x="667.779" y="20.413" transform="matrix(-0.7071 -0.7071 0.7071 -0.7071 1127.2367 511.1428)" fill="#575C7A" width="3.4" height="3.4"/>
	
		<rect x="846.525" y="189.205" transform="matrix(-0.7071 -0.7071 0.7071 -0.7071 1313.7197 927.3715)" fill="#575C7A" width="4.801" height="4.801"/>
	
		<rect x="1063.56" y="145.558" transform="matrix(-0.7072 -0.707 0.707 -0.7072 1714.4722 1004.5717)" fill="#575C7A" width="3.4" height="3.4"/>
	
		<rect x="1182.266" y="82.531" transform="matrix(-0.707 -0.7072 0.7072 -0.707 1962.1663 982.783)" display="none" fill="#575C7A" width="4.8" height="4.8"/>
	
		<rect x="995.976" y="125.372" transform="matrix(-0.7071 -0.7071 0.7071 -0.7071 1613.2859 922.388)" display="none" fill="#575C7A" width="3.4" height="3.4"/>
	
		<rect x="806.623" y="24.488" transform="matrix(-0.7071 -0.7071 0.7071 -0.7071 1361.3762 616.2745)" fill="#575C7A" width="3.4" height="3.399"/>
	
		<rect x="1416.918" y="163.498" transform="matrix(-0.7072 -0.7071 0.7071 -0.7072 2305.7009 1286.7517)" fill="#575C7A" width="4.8" height="4.801"/>
	
		<rect x="1031.576" y="89.65" transform="matrix(-0.707 -0.7072 0.7072 -0.707 1699.2361 886.6489)" display="none" fill="#575C7A" width="3.399" height="3.401"/>
	
		<rect x="1199.87" y="136.535" transform="matrix(-0.7072 -0.7071 0.7071 -0.7072 1954.2292 1087.257)" display="none" fill="#575C7A" width="4.8" height="4.8"/>
	
		<rect x="1271.618" y="77.758" transform="matrix(-0.7072 -0.707 0.707 -0.7072 2117.8879 1036.6675)" fill="#575C7A" width="4.001" height="4"/>
	
		<rect x="1244.735" y="238.093" transform="matrix(-0.7072 -0.707 0.707 -0.7072 1959.0903 1292.3021)" fill="#575C7A" width="4.8" height="4.8"/>
	
		<rect x="461.106" y="188.269" transform="matrix(-0.7071 -0.7071 0.7071 -0.7071 656.4307 653.2404)" fill="#575C7A" width="4.801" height="4.801"/>
	
		<rect x="1012.103" y="66.576" transform="matrix(-0.7071 -0.7071 0.7071 -0.7071 1682.3909 833.4218)" fill="#575C7A" width="3.4" height="3.4"/>
	
		<rect x="1114.536" y="209.258" transform="matrix(-0.7072 -0.707 0.707 -0.7072 1756.4595 1149.3604)" fill="#575C7A" width="3.4" height="3.399"/>
	
		<rect x="1085.522" y="91.016" transform="matrix(-0.7071 -0.7071 0.7071 -0.7071 1790.4435 927.0576)" fill="#575C7A" width="3.4" height="3.4"/>
	
		<rect x="971.257" y="10.525" transform="matrix(-0.7072 -0.7071 0.7071 -0.7072 1653.0461 710.4965)" fill="#575C7A" width="4.8" height="4.802"/>
	
		<rect x="1538.11" y="193.105" transform="matrix(-0.7071 -0.7071 0.7071 -0.7071 2491.5728 1423.0529)" fill="#575C7A" width="4.801" height="4.8"/>
	
		<rect x="1532.657" y="24.644" transform="matrix(-0.7071 -0.7071 0.7071 -0.7071 2601.3843 1131.6165)" fill="#575C7A" width="4.801" height="4.801"/>
	
		<rect x="940.481" y="91.989" transform="matrix(-0.7072 -0.707 0.707 -0.7072 1542.2295 826.098)" fill="#575C7A" width="3.4" height="3.4"/>
	
		<rect x="1357.212" y="98.695" transform="matrix(-0.707 -0.7072 0.7072 -0.707 2248.3918 1131.6652)" fill="#575C7A" width="2.8" height="2.799"/>
	
		<rect x="775.932" y="88.734" transform="matrix(-0.7072 -0.7071 0.7071 -0.7072 1264.2986 705.9044)" fill="#575C7A" width="4.8" height="4.801"/>
	
		<rect x="885.259" y="130.807" transform="matrix(-0.7071 -0.7071 0.7071 -0.7071 1420.2865 853.0157)" fill="#575C7A" width="3.099" height="3.1"/>
	
		<rect x="663.232" y="35.24" transform="matrix(-0.7069 -0.7073 0.7073 -0.7069 1108.7273 532.9728)" fill="#575C7A" width="3.098" height="3.099"/>
	
		<rect x="605.055" y="83.897" transform="matrix(-0.7071 -0.7071 0.7071 -0.7071 975.1201 574.802)" fill="#575C7A" width="3.1" height="3.1"/>
	
		<rect x="1714.834" y="126.155" transform="matrix(0.9282 0.372 -0.372 0.9282 170.6547 -629.2648)" fill="#575C7A" width="3.099" height="3.1"/>
	
		<rect x="1787.928" y="241.758" transform="matrix(0.9282 0.372 -0.372 0.9282 218.925 -648.2041)" fill="#575C7A" width="3.1" height="3.1"/>
	
		<rect x="1645.167" y="95.27" transform="matrix(0.9282 0.3721 -0.3721 0.9282 154.2708 -605.7856)" fill="#575C7A" width="3.1" height="3.1"/>
	
		<rect x="1691.955" y="169.782" transform="matrix(0.4987 0.8668 -0.8668 0.4987 997.4941 -1382.0139)" fill="#575C7A" width="3.1" height="3.1"/>
	
		<rect x="1978.443" y="135.607" transform="matrix(0.9281 0.3723 -0.3723 0.9281 193.3627 -727.2133)" fill="#575C7A" width="3.101" height="3.1"/>
	
		<rect x="2068.342" y="115.233" transform="matrix(0.9282 0.3721 -0.3721 0.9282 192.0854 -761.8145)" fill="#575C7A" width="3.1" height="3.1"/>
	
		<rect x="2026.124" y="148.958" transform="matrix(0.9282 0.3722 -0.3722 0.9282 201.7286 -743.8495)" fill="#575C7A" width="3.399" height="3.401"/>
	
		<rect x="1613.122" y="189.601" transform="matrix(0.9282 0.3722 -0.3722 0.9282 187.188 -587.228)" fill="#575C7A" width="3.399" height="3.4"/>
	
		<rect x="1896.688" y="199.679" transform="matrix(0.9282 0.3722 -0.3722 0.9282 211.3073 -692.0355)" fill="#575C7A" width="3.399" height="3.4"/>
	
		<rect x="1958.981" y="198.628" transform="matrix(0.9281 0.3722 -0.3722 0.9281 215.4393 -715.3865)" fill="#575C7A" width="3.402" height="3.4"/>
	
		<rect x="1691.3" y="241.94" transform="matrix(0.9282 0.372 -0.372 0.9282 212.1677 -612.3655)" fill="#575C7A" width="3.399" height="3.4"/>
	
		<rect x="1614.005" y="248.3" transform="matrix(0.9282 0.3722 -0.3722 0.9282 209.119 -583.3774)" fill="#575C7A" width="3.401" height="3.401"/>
	
		<rect x="1747.224" y="190.375" transform="matrix(0.9281 0.3723 -0.3723 0.9281 197.1971 -637.2451)" fill="#575C7A" width="3.399" height="3.4"/>
	
		<rect x="1783.263" y="133.264" transform="matrix(0.9282 0.3721 -0.3721 0.9282 178.3473 -654.4894)" fill="#575C7A" width="3.101" height="3.1"/>
	
		<rect x="2024.859" y="134.014" transform="matrix(0.9281 0.3722 -0.3722 0.9281 196.08 -744.5534)" fill="#575C7A" width="3.1" height="3.1"/>
	
		<rect x="2059.059" y="66.246" transform="matrix(0.9281 0.3722 -0.3722 0.9281 173.3124 -762.1536)" fill="#575C7A" width="3.1" height="3.1"/>
	
		<rect x="1955.339" y="16.227" transform="matrix(0.9917 0.1286 -0.1286 0.9917 18.6489 -251.5932)" fill="#575C7A" width="4.8" height="4.8"/>
	
		<rect x="1593.347" y="53.79" transform="matrix(0.9917 0.1286 -0.1286 0.9917 20.467 -204.6911)" fill="#575C7A" width="4.801" height="4.799"/>
	
		<rect x="1483.841" y="89.532" transform="matrix(0.9917 0.1286 -0.1286 0.9917 24.1608 -190.3541)" fill="#575C7A" width="4.8" height="4.799"/>
	
		<rect x="1778.124" y="58.181" transform="matrix(0.9917 0.1286 -0.1286 0.9917 22.5868 -228.542)" fill="#575C7A" width="4.802" height="4.8"/>
	
		<rect x="1645.441" y="48.327" transform="matrix(0.9917 0.1285 -0.1285 0.9917 20.1775 -211.3122)" fill="#575C7A" width="4.8" height="4.8"/>
	
		<rect x="1970.222" y="45.874" transform="matrix(0.9917 0.1286 -0.1286 0.9917 22.5995 -253.3557)" fill="#575C7A" width="4.802" height="4.799"/>
	
		<rect x="1853.148" y="53.581" transform="matrix(0.9917 0.1285 -0.1285 0.9917 22.5885 -238.0464)" fill="#575C7A" width="4.802" height="4.8"/>
	
		<rect x="1661.345" y="33.586" transform="matrix(0.9917 0.1286 -0.1286 0.9917 18.4338 -213.6011)" fill="#575C7A" width="4.801" height="4.8"/>
	
		<rect x="1970.439" y="89.924" transform="matrix(0.9917 0.1286 -0.1286 0.9917 28.2511 -252.923)" fill="#575C7A" width="4.8" height="4.8"/>
	
		<rect x="1890.609" y="116.789" transform="matrix(-0.7072 -0.7071 0.7071 -0.7072 3147.3916 1541.9385)" fill="#575C7A" width="4.8" height="4.802"/>
	
		<rect x="1834.768" y="144.126" transform="matrix(-0.707 -0.7072 0.7072 -0.707 3032.4314 1549.3799)" fill="#575C7A" width="4.8" height="4.799"/>
	
		<rect x="1988.432" y="228.015" transform="matrix(-0.707 -0.7072 0.7072 -0.707 3235.4094 1801.2521)" fill="#575C7A" width="4.8" height="4.799"/>
	
		<rect x="2006.72" y="69.405" transform="matrix(-0.7071 -0.7072 0.7072 -0.7071 3378.9004 1543.3383)" fill="#575C7A" width="4.798" height="4.8"/>
	
		<rect x="1804.564" y="37.986" transform="matrix(-0.7072 -0.707 0.707 -0.7072 3055.418 1344.469)" fill="#575C7A" width="3.1" height="3.1"/>
	
		<rect x="252.823" y="99.203" transform="matrix(-0.7071 -0.7071 0.7071 -0.7071 362.8487 351.5024)" fill="#575C7A" width="2.8" height="2.8"/>
	
		<rect x="255.283" y="153.468" transform="matrix(-0.7072 -0.7071 0.7071 -0.7072 329.6988 448.2876)" fill="#575C7A" width="4.8" height="4.8"/>
	
		<rect x="244.413" y="245.267" transform="matrix(-0.707 -0.7072 0.7072 -0.707 246.1593 597.3173)" fill="#575C7A" width="4.801" height="4.8"/>
	
		<rect x="140.99" y="179.263" transform="matrix(-0.7071 -0.7072 0.7072 -0.7071 116.3108 411.5091)" fill="#575C7A" width="4.8" height="4.8"/>
	
		<rect x="179.106" y="132.285" transform="matrix(-0.7072 -0.7071 0.7071 -0.7072 214.6299 358.2632)" fill="#575C7A" width="4.8" height="4.8"/>
	
		<rect x="25.004" y="74.688" transform="matrix(-0.7071 -0.7072 0.7072 -0.7071 -7.7336 150.9736)" fill="#575C7A" width="4.8" height="4.8"/>
	
		<rect x="120.206" y="145.598" transform="matrix(-0.7071 -0.7071 0.7071 -0.7071 104.6519 339.3443)" fill="#575C7A" width="4.801" height="4.8"/>
	
		<rect x="55.206" y="202.068" transform="matrix(-0.7072 -0.7071 0.7071 -0.7072 -46.2283 389.7896)" fill="#575C7A" width="4.8" height="4.8"/>
	
		<rect x="108.729" y="30.8" transform="matrix(-0.7072 -0.7071 0.7071 -0.7072 166.2404 135.2529)" fill="#575C7A" width="4.8" height="4.8"/>
	
		<rect x="209.686" y="47.413" transform="matrix(-0.707 -0.7072 0.7072 -0.707 325.8079 232.604)" fill="#575C7A" width="2.8" height="2.8"/>
	
		<rect x="51.812" y="61.811" transform="matrix(-0.7071 -0.7072 0.7072 -0.7071 47.1349 147.9483)" fill="#575C7A" width="4.8" height="4.8"/>
	
		<rect x="295.83" y="163.615" transform="matrix(-0.707 -0.7072 0.7072 -0.707 391.6726 494.2999)" fill="#575C7A" width="4.8" height="4.8"/>
	
		<rect x="150.297" y="77.992" transform="matrix(-0.7072 -0.707 0.707 -0.7072 203.438 244.2414)" fill="#575C7A" width="4" height="4.001"/>
	
		<rect x="123.545" y="238.447" transform="matrix(-0.707 -0.7072 0.7072 -0.707 44.6601 500.196)" fill="#575C7A" width="4.8" height="4.799"/>
	
		<rect x="236.201" y="98.907" transform="matrix(-0.7073 -0.7069 0.7069 -0.7073 334.7407 339.221)" fill="#575C7A" width="2.8" height="2.8"/>
	
		<rect x="287.802" y="49.871" transform="matrix(-0.7071 -0.7071 0.7071 -0.7071 458.4459 294.436)" fill="#575C7A" width="4.801" height="4.8"/>
	
		<rect x="441.627" y="26.613" transform="matrix(0.4987 0.8668 -0.8668 0.4987 246.5842 -370.021)" fill="#575C7A" width="3.1" height="3.1"/>
	
		<rect x="362.742" y="46.45" transform="matrix(0.9281 0.3723 -0.3723 0.9281 44.1215 -132.2141)" fill="#575C7A" width="3.4" height="3.4"/>
	
		<rect x="440.871" y="98.651" transform="matrix(0.9282 0.3721 -0.3721 0.9282 69.1092 -157.4583)" fill="#575C7A" width="3.4" height="3.401"/>
	
		<rect x="363.851" y="105.146" transform="matrix(0.9282 0.3721 -0.3721 0.9282 66.015 -128.36)" fill="#575C7A" width="3.401" height="3.4"/>
	
		<rect x="496.965" y="47.337" transform="matrix(0.9282 0.3722 -0.3722 0.9282 54.0688 -182.06)" fill="#575C7A" width="3.399" height="3.4"/>
	
		<rect x="387.945" y="248.865" transform="matrix(-0.707 -0.7072 0.7072 -0.707 488.6253 704.9667)" fill="#575C7A" width="4.801" height="4.801"/>
	
		<rect x="424.157" y="181.942" transform="matrix(-0.707 -0.7072 0.7072 -0.707 596.9315 614.2784)" fill="#575C7A" width="3.099" height="3.099"/>
	
		<rect x="325.374" y="206.799" transform="matrix(-0.707 -0.7072 0.7072 -0.707 411.5659 588.9073)" fill="#575C7A" width="4.8" height="4.799"/>
	
		<rect x="364.108" y="148.274" transform="matrix(-0.707 -0.7072 0.7072 -0.707 518.2356 514.3405)" fill="#575C7A" width="3.099" height="3.099"/>
	
		<rect x="2123.834" y="139.525" transform="matrix(-0.7072 -0.707 0.707 -0.7072 3529.5833 1745.5551)" fill="#575C7A" width="4.8" height="4.801"/>
	
		<rect x="2345.873" y="52.506" transform="matrix(-0.707 -0.7072 0.7072 -0.707 3969.6838 1754.4413)" fill="#575C7A" width="4.8" height="4.799"/>
	
		<rect x="2418.352" y="18.982" transform="matrix(-0.707 -0.7072 0.7072 -0.707 4117.1133 1748.4755)" fill="#575C7A" width="4.799" height="4.8"/>
	
		<rect x="2526.914" y="57.632" transform="matrix(-0.707 -0.7072 0.7072 -0.707 4275.0962 1891.226)" fill="#575C7A" width="4.8" height="4.799"/>
	
		<rect x="2289.822" y="214.482" transform="matrix(-0.7071 -0.7071 0.7071 -0.7071 3759.71 1991.0875)" fill="#575C7A" width="4.801" height="4.8"/>
	
		<rect x="2236.494" y="67.48" transform="matrix(-0.7071 -0.7071 0.7071 -0.7071 3772.6194 1702.4299)" fill="#575C7A" width="4.801" height="4.801"/>
	
		<rect x="2196.307" y="132.149" transform="matrix(-0.707 -0.7073 0.7073 -0.707 3657.9316 1784.724)" fill="#575C7A" width="4.8" height="4.799"/>
	
		<rect x="2130.072" y="107.084" transform="matrix(-0.7072 -0.7071 0.7071 -0.7072 3563.0537 1694.6837)" fill="#575C7A" width="4.8" height="4.801"/>
	
		<rect x="2497.61" y="172.887" transform="matrix(-0.707 -0.7072 0.7072 -0.707 4143.5659 2067.2444)" fill="#575C7A" width="4.8" height="4.801"/>
	
		<rect x="2511.196" y="42.064" transform="matrix(-0.7071 -0.7071 0.7071 -0.7071 4258.686 1851.2335)" fill="#575C7A" width="3.1" height="3.1"/>
	
		<rect x="2326.071" y="147.174" transform="matrix(-0.7071 -0.7071 0.7071 -0.7071 3868.3335 1899.765)" fill="#575C7A" width="3.1" height="3.1"/>
	
		<rect x="2304.337" y="12.299" transform="matrix(-0.7069 -0.7073 0.7073 -0.7069 3926.0547 1654.6896)" fill="#575C7A" width="3.1" height="3.099"/>
	
		<rect x="2377.896" y="203.081" transform="matrix(-0.707 -0.7072 0.7072 -0.707 3917.0681 2032.0194)" fill="#575C7A" width="3.099" height="3.099"/>
	
		<rect x="2364.048" y="116.036" transform="matrix(-0.1172 -0.9931 0.9931 -0.1172 2526.043 2480.6636)" fill="#575C7A" width="3.1" height="3.099"/>
	
		<rect x="2227.3" y="172.484" transform="matrix(-0.7072 -0.7071 0.7071 -0.7072 3682.7964 1875.076)" fill="#575C7A" width="4.8" height="4.8"/>
	
		<rect x="2444.255" y="128.595" transform="matrix(-0.7072 -0.707 0.707 -0.7072 4083.5591 1951.812)" fill="#575C7A" width="3.4" height="3.4"/>
	
		<rect x="2187.32" y="7.625" transform="matrix(-0.7072 -0.707 0.707 -0.7072 3730.4541 1563.6326)" fill="#575C7A" width="3.4" height="3.4"/>
	
		<rect x="2392.984" y="49.731" transform="matrix(-0.7072 -0.707 0.707 -0.7072 4051.7888 1780.9276)" fill="#575C7A" width="3.4" height="3.4"/>
	
		<rect x="2495.235" y="192.58" transform="matrix(-0.7071 -0.7071 0.7071 -0.7071 4125.1587 2097.2571)" fill="#575C7A" width="3.4" height="3.4"/>
	
		<rect x="2466.29" y="74.041" transform="matrix(-0.707 -0.7072 0.7072 -0.707 4159.3818 1874.6029)" fill="#575C7A" width="3.399" height="3.4"/>
	
		<rect x="2321.463" y="75.049" transform="matrix(-0.707 -0.7072 0.7072 -0.707 3911.4443 1773.9042)" fill="#575C7A" width="3.399" height="3.4"/>
	
		<rect x="2156.606" y="71.9" transform="matrix(-0.7071 -0.7072 0.7072 -0.7071 3633.0029 1653.5918)" fill="#575C7A" width="4.801" height="4.8"/>
	
		<rect x="2265.862" y="113.881" transform="matrix(-0.7069 -0.7073 0.7073 -0.7069 3788.5288 1800.8635)" fill="#575C7A" width="3.1" height="3.099"/>
</g>
<linearGradient id="SVGID_1_" gradientUnits="userSpaceOnUse" x1="263.2588" y1="-389.7188" x2="434.3916" y2="-392.3284" gradientTransform="matrix(0.999 0.0438 0.0438 -0.999 702.528 -335.4973)">
	<stop  offset="0" style="stop-color:#F2FAFE"/>
	<stop  offset="0.2092" style="stop-color:#F3C187"/>
	<stop  offset="0.4322" style="stop-color:#EB8D80"/>
	<stop  offset="0.4645" style="stop-color:#C77E75"/>
	<stop  offset="0.5125" style="stop-color:#996B66"/>
	<stop  offset="0.5623" style="stop-color:#705A59"/>
	<stop  offset="0.613" style="stop-color:#504C4E"/>
	<stop  offset="0.665" style="stop-color:#364146"/>
	<stop  offset="0.7187" style="stop-color:#243A41"/>
	<stop  offset="0.7754" style="stop-color:#19353D"/>
	<stop  offset="0.8399" style="stop-color:#16343C"/>
</linearGradient>
<path display="none" fill="url(#SVGID_1_)" d="M959.75,63.35c-3.2-0.1-6.4-0.3-9.602-0.4l-1.6,0.8l1.5,0.9
	c7.199,0.3,14.6,0.5,22.1,0.8c61.7,2.7,116.2,7.8,149.9,13.1C1090.45,72.45,1029.75,66.45,959.75,63.35z"/>
</svg>
